<?xml version="1.0" encoding="UTF-8"?>
<svg id="Layer_1" data-name="Layer 1" xmlns="http://www.w3.org/2000/svg" viewBox="0 0 1052.99 931.71">
  <defs>
    <style>
      .cls-1 {
        fill: #5d75a4;
      }

      .cls-2 {
        fill: #f0716a;
      }

      .cls-3 {
        fill: #f7c44f;
      }

      .cls-4 {
        fill: #42c8b1;
      }
    </style>
  </defs>
  <path class="cls-4" d="M375,149.79c-11.17-3.59-35.11,12.27-83,44-31.16,20.64-46.96,31.31-58,48-19.76,29.89-18.09,62.25-17,90,2.46,62.64.21,125.4,1.93,188.06,3.69,134.37-6.92,159.47,20.07,193.94,12.71,16.22,33.8,30.82,76,60,58.45,40.43,70.15,36.75,74,35,21.51-9.78,17.69-59.17,15-105-4.63-78.89-.88-158.14-6-237-13.22-203.63,12.04-305.75-23-317Z"/>
  <path class="cls-1" d="M485,415.79c-17.83-7.55-8.24-43.47-9-179-.62-110.42-7.24-133.53,14-167C528.06,9.81,601.82,1.31,607,.79c74.79-7.46,155.84,38.99,166,94,6.96,37.68-23.66,55.9-159,203-85.29,92.7-110.34,125.9-129,118Z"/>
  <path class="cls-3" d="M863,150.79c-42.04,8.82-55.69,39.05-119,115-81.7,98.02-100.87,97.93-103,131-1.38,21.32,24.75,63.22,77,147,34.05,54.6,37.91,56.22,62,98,15.16,26.3,31.61,51.83,47,78,19.05,32.39,28.16,48.88,49,60,21.54,11.5,42.75,10.4,49,10,61.29-3.93,99.88-69.96,105-79,21.62-38.19,11.5-53.59,16-191,2.15-65.65.72-131.45,5-197,2.51-38.41,4.94-60.78-8-87-23.88-48.38-79.18-67.49-98-74-23.57-8.15-50.77-17.55-82-11Z"/>
  <path class="cls-2" d="M555,472.79c-20.18,2.59-37.78,26.07-48.15,39.91-5.82,7.77-17.67,25.26-26.85,62.09-9.07,36.36-8.64,63.47-7.45,117.18.1,4.51,1.37,59.98,4.45,95.82.49,5.68,1.72,18.89,2,37,.29,18.57-.77,19.16,0,24,2.05,12.92,12.32,25.76,59,50,39.62,20.57,59.44,30.86,77.06,32.47,32.14,2.93,56.23-8.48,90.94-25.47,55.18-27,83.43-40.82,93.27-66.92,15.76-41.8-30.44-75.99-115.27-201.08-69.58-102.6-92.58-169.68-129-165Z"/>
</svg>